
<svg version="1.0" xmlns="http://www.w3.org/2000/svg"
 width="148.000000pt" height="128.000000pt" viewBox="0 0 148.000000 128.000000"
 preserveAspectRatio="xMidYMid meet">

<g transform="translate(0.000000,128.000000) scale(0.100000,-0.100000)"
fill="#ffffff" stroke="none">
<path d="M744 1215 c-3 -19 -10 -38 -15 -41 -5 -3 -9 -14 -9 -25 0 -26 -99
-381 -109 -392 -4 -4 -24 17 -44 48 -21 30 -41 55 -45 55 -8 0 -83 -222 -78
-228 2 -1 34 18 72 43 72 47 84 52 84 35 0 -6 -25 -97 -55 -203 -53 -186 -61
-216 -50 -205 5 5 75 245 105 356 6 24 15 42 20 40 11 -4 330 -456 330 -468 0
-22 -107 -45 -210 -45 -126 0 -207 25 -294 89 -286 214 -250 669 65 819 37 17
68 35 68 40 3 32 -127 -40 -200 -113 -245 -243 -179 -651 131 -803 41 -21 102
-42 135 -48 76 -14 194 -5 267 20 l58 20 21 -30 c12 -17 23 -28 26 -25 3 2
-86 133 -196 291 -111 157 -199 289 -196 294 3 5 77 56 166 112 88 56 158 104
155 106 -2 3 -73 -39 -156 -92 -83 -54 -153 -96 -154 -94 -2 2 20 87 48 189
51 178 53 185 79 188 84 10 244 -58 324 -138 181 -181 189 -487 17 -674 -19
-21 -32 -41 -29 -45 12 -11 94 90 124 152 149 317 -48 679 -392 722 l-58 7 6
39 c8 49 -2 52 -11 4z m-163 -452 c7 -13 10 -25 8 -27 -30 -25 -119 -73 -119
-63 0 6 12 47 26 91 l26 78 24 -28 c12 -16 28 -39 35 -51z"/>
</g>
</svg>
