<svg width="29" height="29" viewBox="0 0 29 29" fill="none" xmlns="http://www.w3.org/2000/svg">
<mask id="mask0_13_129" style="mask-type:alpha" maskUnits="userSpaceOnUse" x="0" y="0" width="29" height="29">
<rect width="29" height="29" fill="#D9D9D9"/>
</mask>
<g mask="url(#mask0_13_129)">
<path d="M11.4792 19.9375L19.9375 14.5L11.4792 9.0625V19.9375ZM14.5 26.5833C12.8285 26.5833 11.2576 26.2659 9.78749 25.6312C8.31735 24.9972 7.03853 24.1365 5.95103 23.049C4.86353 21.9615 4.0028 20.6826 3.36882 19.2125C2.73405 17.7424 2.41666 16.1715 2.41666 14.5C2.41666 12.8285 2.73405 11.2576 3.36882 9.7875C4.0028 8.31736 4.86353 7.03854 5.95103 5.95104C7.03853 4.86354 8.31735 4.0024 9.78749 3.36762C11.2576 2.73365 12.8285 2.41666 14.5 2.41666C16.1715 2.41666 17.7423 2.73365 19.2125 3.36762C20.6826 4.0024 21.9614 4.86354 23.0489 5.95104C24.1364 7.03854 24.9972 8.31736 25.6312 9.7875C26.2659 11.2576 26.5833 12.8285 26.5833 14.5C26.5833 16.1715 26.2659 17.7424 25.6312 19.2125C24.9972 20.6826 24.1364 21.9615 23.0489 23.049C21.9614 24.1365 20.6826 24.9972 19.2125 25.6312C17.7423 26.2659 16.1715 26.5833 14.5 26.5833ZM14.5 24.1667C17.1986 24.1667 19.4844 23.2302 21.3573 21.3573C23.2302 19.4844 24.1667 17.1986 24.1667 14.5C24.1667 11.8014 23.2302 9.51562 21.3573 7.64271C19.4844 5.76979 17.1986 4.83333 14.5 4.83333C11.8014 4.83333 9.51561 5.76979 7.6427 7.64271C5.76978 9.51562 4.83332 11.8014 4.83332 14.5C4.83332 17.1986 5.76978 19.4844 7.6427 21.3573C9.51561 23.2302 11.8014 24.1667 14.5 24.1667Z" fill="#940D97"/>
</g>
</svg>
